<?xml version="1.0" encoding="iso-8859-1"?>
<!-- Generator: Adobe Illustrator 19.0.0, SVG Export Plug-In . SVG Version: 6.00 Build 0)  -->
<svg version="1.1" id="Capa_1" xmlns="http://www.w3.org/2000/svg" xmlns:xlink="http://www.w3.org/1999/xlink" x="0px" y="0px"
	 viewBox="0 0 511.998 511.998" style="enable-background:new 0 0 511.998 511.998;" xml:space="preserve">
<g>
	<g>
		<g>
			<path d="M443.732,435.202h-8.533v-8.533c0-4.71-3.814-8.533-8.533-8.533s-8.533,3.823-8.533,8.533v8.533h-8.533
				c-4.719,0-8.533,3.823-8.533,8.533s3.814,8.533,8.533,8.533h8.533v8.533c0,4.71,3.814,8.533,8.533,8.533s8.533-3.823,8.533-8.533
				v-8.533h8.533c4.719,0,8.533-3.823,8.533-8.533S448.451,435.202,443.732,435.202z"/>
			<path d="M412.099,48.702c1.664,1.664,3.849,2.5,6.033,2.5c2.185,0,4.369-0.836,6.033-2.5l11.034-11.034l11.034,11.034
				c1.664,1.664,3.849,2.5,6.033,2.5c2.185,0,4.369-0.836,6.033-2.5c3.337-3.336,3.337-8.73,0-12.066l-11.034-11.034l11.034-11.034
				c3.337-3.337,3.337-8.73,0-12.066c-3.336-3.336-8.73-3.336-12.066,0l-11.034,11.034L424.165,2.502
				c-3.337-3.336-8.73-3.336-12.066,0c-3.337,3.337-3.337,8.73,0,12.066l11.034,11.034l-11.034,11.034
				C408.763,39.972,408.763,45.365,412.099,48.702z"/>
			<path d="M349.866,136.535c0,4.71,3.814,8.533,8.533,8.533s8.533-3.823,8.533-8.533s-3.814-8.533-8.533-8.533
				S349.866,131.825,349.866,136.535z"/>
			<path d="M281.599,85.335c4.719,0,8.533-3.823,8.533-8.533s-3.814-8.533-8.533-8.533s-8.533,3.823-8.533,8.533
				S276.88,85.335,281.599,85.335z"/>
			<path d="M435.199,204.802c0,4.71,3.814,8.533,8.533,8.533s8.533-3.823,8.533-8.533c0-4.71-3.814-8.533-8.533-8.533
				S435.199,200.092,435.199,204.802z"/>
			<path d="M358.399,238.935c0,4.71,3.814,8.533,8.533,8.533s8.533-3.823,8.533-8.533s-3.814-8.533-8.533-8.533
				S358.399,234.225,358.399,238.935z"/>
			<path d="M494.932,68.269c-4.719,0-8.533,3.823-8.533,8.533s3.814,8.533,8.533,8.533s8.533-3.823,8.533-8.533
				S499.651,68.269,494.932,68.269z"/>
			<path d="M477.866,136.535c-89.097,0-161.468,85.547-175.198,102.869l-33.126-33.135c37.009-24.934,45.389-48.887,45.747-49.971
				c1.485-4.437-0.896-9.199-5.325-10.726c-4.429-1.51-9.267,0.836-10.829,5.248c-0.085,0.222-7.859,21.069-41.916,43.136
				l-30.421-30.421c15.966-18.765,20.668-70.554,20.668-103.799c0-4.71-3.814-8.533-8.533-8.533s-8.533,3.823-8.533,8.533
				c0,51.567-9.267,84.215-15.283,92.117l-29.884-29.884c-1.997-2.005-4.855-2.876-7.637-2.347c-2.782,0.529-5.112,2.398-6.229,5
				l-28.621,66.287l186.88,186.88l66.287-28.621c2.594-1.118,4.471-3.456,5.001-6.229c0.529-2.782-0.35-5.641-2.347-7.637
				l-39.236-39.236c5.487-9.071,37.786-22.997,92.937-22.997c4.719,0,8.533-3.823,8.533-8.533c0-4.71-3.814-8.533-8.533-8.533
				c-44.476,0-89.353,9.557-105.054,27.947l-32.384-32.393c8.081-10.317,79.258-97.954,163.038-97.954
				c4.719,0,8.533-3.823,8.533-8.533C486.399,140.358,482.585,136.535,477.866,136.535z"/>
			<path d="M324.191,127.965h0.077c4.651,0,8.448-3.763,8.533-8.422c0.017-1.212,0.947-29.943,38.519-52.489
				c4.045-2.423,5.35-7.671,2.927-11.708c-2.423-4.045-7.663-5.359-11.708-2.927c-46.276,27.767-46.805,65.459-46.805,67.046
				C315.734,124.15,319.506,127.922,324.191,127.965z"/>
			<path d="M17.066,51.203c14.114,0,25.6,11.486,25.6,25.6c0,4.71,3.814,8.533,8.533,8.533s8.533-3.823,8.533-8.533
				c0-14.114,11.486-25.6,25.6-25.6c4.719,0,8.533-3.823,8.533-8.533c0-4.71-3.814-8.533-8.533-8.533
				c-14.114,0-25.6-11.486-25.6-25.6c0-4.71-3.814-8.533-8.533-8.533s-8.533,3.823-8.533,8.533c0,14.114-11.486,25.6-25.6,25.6
				c-4.719,0-8.533,3.823-8.533,8.533C8.532,47.38,12.347,51.203,17.066,51.203z M51.199,34.111
				c2.432,3.234,5.316,6.127,8.559,8.559c-3.243,2.432-6.127,5.316-8.559,8.559c-2.432-3.243-5.316-6.127-8.559-8.559
				C45.883,40.238,48.767,37.345,51.199,34.111z"/>
			<polygon points="120.899,241.485 279.047,399.633 312.763,385.076 135.466,207.762 			"/>
			<polygon points="87.674,318.431 202.097,432.863 262.198,406.913 113.624,258.339 			"/>
			<path d="M9.232,500.085c-1.382,3.208-0.674,6.946,1.801,9.421c1.63,1.63,3.814,2.492,6.033,2.492c1.143,0,2.295-0.222,3.379-0.7
				l114.227-49.323l-76.117-76.117L9.232,500.085z"/>
			<polygon points="65.832,369.007 151.532,454.698 185.247,440.14 80.398,335.283 			"/>
		</g>
	</g>
</g>
<g>
</g>
<g>
</g>
<g>
</g>
<g>
</g>
<g>
</g>
<g>
</g>
<g>
</g>
<g>
</g>
<g>
</g>
<g>
</g>
<g>
</g>
<g>
</g>
<g>
</g>
<g>
</g>
<g>
</g>
</svg>
